# xmcd CD database file
#
# Track frame offsets:
#	150
#	17372
#	39587
#	63705
#	90547
#
# Disc length: 1594 seconds
#
# Revision: 0
# Processed by: cddbd v1.5.1PL0 Copyright (c) Steve Scherf et al.
# Submitted via: CDex 1.51
#
DISCID=35063805
DTITLE=Alternate Experience Feat Melanie - All Around the World
DYEAR=1997
DGENRE=Jazz
TTITLE0=All Around the World Singel
TTITLE1=All Around the World Orginal
TTITLE2=All Around the World Alternate
TTITLE3=All Around the World Club Mix
TTITLE4=Comming Back
EXTD=YEAR: 1997
EXTT0=
EXTT1=
EXTT2=
EXTT3=
EXTT4=
PLAYORDER=
